<svg width="24" height="24" viewBox="0 0 24 24" fill="currentColor" xmlns="http://www.w3.org/2000/svg">
    <path d="M11.7983 24C11.2987 24 10.804 23.8727 10.3534 23.6278C9.64318 23.2408 9.1289 22.5992 8.90359 21.8253C8.75175 21.3061 9.05053 20.7625 9.56971 20.6106C10.0889 20.4588 10.6326 20.7576 10.7844 21.2767C10.9509 21.84 11.5436 22.1633 12.1069 21.9967C12.4546 21.8939 12.724 21.6245 12.8269 21.2767C12.9787 20.7576 13.5224 20.4588 14.0415 20.6106C14.5607 20.7625 14.8595 21.3061 14.7077 21.8253C14.4187 22.8196 13.6497 23.5837 12.6603 23.8727C12.3762 23.9559 12.0922 23.9951 11.8032 23.9951L11.7983 24Z"/>
    <path d="M11.7983 4.16327C11.2595 4.16327 10.8187 3.72245 10.8187 3.18367V0.979592C10.8187 0.440816 11.2595 0 11.7983 0C12.3371 0 12.7779 0.440816 12.7779 0.979592V3.18367C12.7779 3.72245 12.3371 4.16327 11.7983 4.16327Z"/>
    <path d="M20.6146 19.5918H2.98196C2.60481 19.5918 2.26686 19.3763 2.10032 19.0433C1.93379 18.7102 1.97788 18.3037 2.20808 18.0098C2.20808 18.0098 3.46686 16.178 3.46686 10.5306C3.47175 5.94122 7.2089 2.20408 11.7983 2.20408C16.3877 2.20408 20.1248 5.94122 20.1248 10.5306C20.1248 16.3837 21.2171 17.8384 21.2269 17.8482C21.5501 18.1078 21.6775 18.5437 21.5354 18.9355C21.3983 19.3273 21.026 19.5918 20.6097 19.5918H20.6146ZM4.51012 17.6327H18.9983C18.5624 16.3445 18.1607 14.1698 18.1607 10.5306C18.1607 6.89143 15.3052 4.16327 11.7934 4.16327C8.28155 4.16327 5.43094 7.01878 5.43094 10.5306C5.43094 14.0424 4.95583 16.3249 4.51012 17.6327Z"/>
</svg>
