<svg width="24" height="24" viewBox="0 0 24 24" fill="currentColor" xmlns="http://www.w3.org/2000/svg">
    <path fill-rule="evenodd" clip-rule="evenodd" d="M6.85714 0C7.39816 0 7.83673 0.438578 7.83673 0.979592V2.93878H16.1633V0.979592C16.1633 0.438578 16.6018 0 17.1429 0C17.6839 0 18.1224 0.438578 18.1224 0.979592V2.93878H21.551C22.9035 2.93878 24 4.03521 24 5.38776V21.551C24 22.9035 22.9035 24 21.551 24H2.44898C1.09643 24 0 22.9035 0 21.551V5.38776C0 4.03522 1.09644 2.93878 2.44898 2.93878H5.87755V0.979592C5.87755 0.438578 6.31613 0 6.85714 0ZM16.1633 4.89796V6.12245C16.1633 6.66346 16.6018 7.10204 17.1429 7.10204C17.6839 7.10204 18.1224 6.66346 18.1224 6.12245V4.89796H21.551C21.8215 4.89796 22.0408 5.11726 22.0408 5.38776V8.81633H1.95918V5.38776C1.95918 5.11725 2.17847 4.89796 2.44898 4.89796H5.87755V6.12245C5.87755 6.66346 6.31613 7.10204 6.85714 7.10204C7.39816 7.10204 7.83673 6.66346 7.83673 6.12245V4.89796H16.1633ZM1.95918 10.7755H22.0408V21.551C22.0408 21.8215 21.8215 22.0408 21.551 22.0408H2.44898C2.17848 22.0408 1.95918 21.8215 1.95918 21.551V10.7755Z"/>
    <path fill-rule="evenodd" clip-rule="evenodd" d="M4.40816 13.8367C4.40816 13.0929 5.01119 12.4898 5.7551 12.4898C6.49902 12.4898 7.10204 13.0929 7.10204 13.8367C7.10204 14.5806 6.49902 15.1837 5.7551 15.1837C5.01119 15.1837 4.40816 14.5806 4.40816 13.8367Z"/>
    <path d="M4.40816 18.9796C4.40816 18.2357 5.01119 17.6327 5.7551 17.6327C6.49902 17.6327 7.10204 18.2357 7.10204 18.9796C7.10204 19.7235 6.49902 20.3265 5.7551 20.3265C5.01119 20.3265 4.40816 19.7235 4.40816 18.9796Z"/>
    <path d="M10.6531 13.8367C10.6531 13.0928 11.2561 12.4898 12 12.4898C12.7439 12.4898 13.3469 13.0928 13.3469 13.8367C13.3469 14.5806 12.7439 15.1837 12 15.1837C11.2561 15.1837 10.6531 14.5806 10.6531 13.8367Z"/>
    <path d="M10.6531 18.9796C10.6531 18.2357 11.2561 17.6327 12 17.6327C12.7439 17.6327 13.3469 18.2357 13.3469 18.9796C13.3469 19.7235 12.7439 20.3265 12 20.3265C11.2561 20.3265 10.6531 19.7235 10.6531 18.9796Z"/>
    <path d="M16.898 13.8367C16.898 13.0928 17.501 12.4898 18.2449 12.4898C18.9888 12.4898 19.5918 13.0928 19.5918 13.8367C19.5918 14.5806 18.9888 15.1837 18.2449 15.1837C17.501 15.1837 16.898 14.5806 16.898 13.8367Z"/>
    <path d="M16.898 18.9796C16.898 18.2357 17.501 17.6327 18.2449 17.6327C18.9888 17.6327 19.5918 18.2357 19.5918 18.9796C19.5918 19.7235 18.9888 20.3265 18.2449 20.3265C17.501 20.3265 16.898 19.7235 16.898 18.9796Z"/>
</svg>
