<svg width="24" height="24" viewBox="0 0 24 24" fill="currentColor" xmlns="http://www.w3.org/2000/svg">
    <path fill-rule="evenodd" clip-rule="evenodd" d="M1.95919 10.9609C1.98659 12.0589 2.2625 13.1365 2.76624 14.1127C3.27174 15.0923 3.99343 15.9441 4.8767 16.6037C5.08821 16.7616 5.22703 16.9982 5.26171 17.2599C5.40046 18.3068 5.16763 19.3095 4.67093 20.2677C4.83994 20.2084 5.01078 20.1487 5.18215 20.0891C6.13309 19.7582 7.10779 19.4272 7.87975 19.1836C8.26413 19.0623 8.60985 18.959 8.88183 18.8879C9.01643 18.8527 9.14765 18.8215 9.26358 18.8003C9.32122 18.7898 9.38842 18.7793 9.4581 18.7732C9.51193 18.7685 9.63636 18.7593 9.78004 18.7847L9.6098 19.7494L9.79622 18.7877C10.5247 18.9289 11.2643 19.0049 12.0063 19.0147C17.7368 19.0119 22.0408 15.2229 22.0408 10.9722C22.0408 6.72169 17.7748 2.95918 12 2.95918C6.23035 2.95918 1.96681 6.71497 1.95919 10.9609ZM9.56505 20.7378C10.3644 20.8845 11.1748 20.9635 11.9875 20.9738L12 20.9739C18.4329 20.9739 24 16.6531 24 10.9722C24 5.28974 18.4701 1 12 1C5.52991 1 0 5.28974 0 10.9722C0 10.9799 8.91004e-05 10.9875 0.00026736 10.9951C0.0329602 12.3942 0.383445 13.7675 1.0252 15.0112C1.59613 16.1176 2.38429 17.0955 3.34086 17.8875C3.32447 18.9438 2.65858 20.1681 1.10205 21.6316C0.76307 21.9503 0.69505 22.4635 0.939294 22.8595C1.18354 23.2555 1.67265 23.4251 2.1096 23.2653L1.77306 22.3453C2.1096 23.2653 2.1096 23.2653 2.1096 23.2653L2.11082 23.2648L2.19113 23.2355C2.24464 23.216 2.32332 23.1874 2.42372 23.1509C2.62452 23.078 2.91213 22.9738 3.25889 22.8491C3.95268 22.5995 4.88199 22.268 5.82601 21.9395C6.77181 21.6104 7.72507 21.2869 8.46934 21.052C8.84306 20.9341 9.15252 20.8422 9.37741 20.7834C9.45714 20.7625 9.51912 20.7477 9.56505 20.7378Z"/>
    <path fill-rule="evenodd" clip-rule="evenodd" d="M12.9116 4.90695C13.0206 4.37705 13.5387 4.03593 14.0686 4.14502C17.7036 4.8934 20.6498 7.63582 20.6498 11.1682C20.6498 11.1787 20.6496 11.1892 20.6493 11.1997C20.6141 12.291 20.3189 13.3581 19.7882 14.3122C19.2574 15.2664 18.5065 16.08 17.5979 16.6854C17.1476 16.9854 16.5395 16.8636 16.2395 16.4134C15.9395 15.9631 16.0613 15.355 16.5115 15.055C17.1605 14.6226 17.6969 14.0414 18.076 13.3599C18.4526 12.683 18.6631 11.9265 18.6906 11.1525C18.6817 8.83288 16.6929 6.68561 13.6735 6.06396C13.1436 5.95486 12.8025 5.43685 12.9116 4.90695Z"/>
</svg>
