<svg width="24" height="24" viewBox="0 0 24 24" fill="currentColor" xmlns="http://www.w3.org/2000/svg">
    <path d="M15.6649 12.7326L10.266 17.7907C10.1915 17.8605 10.1108 17.9128 10.0239 17.9477C9.93706 17.9826 9.84397 18 9.74468 18C9.5461 18 9.37234 17.936 9.2234 17.8081C9.07447 17.6802 9 17.5116 9 17.3023L9 6.69767C9 6.48837 9.07447 6.31977 9.2234 6.19186C9.37234 6.06395 9.5461 6 9.74468 6C9.79433 6 9.96809 6.06977 10.266 6.2093L15.6649 11.2674C15.789 11.3837 15.8759 11.5 15.9255 11.6163C15.9752 11.7326 16 11.8605 16 12C16 12.1395 15.9752 12.2674 15.9255 12.3837C15.8759 12.5 15.789 12.6163 15.6649 12.7326Z"/>
</svg>

