<svg width="24" height="24" viewBox="0 0 24 24" fill="currentColor" xmlns="http://www.w3.org/2000/svg">
    <path d="M8.33511 11.2674L13.734 6.2093C13.8085 6.13953 13.8892 6.08721 13.9761 6.05233C14.0629 6.01744 14.156 6 14.2553 6C14.4539 6 14.6277 6.06395 14.7766 6.19186C14.9255 6.31977 15 6.48837 15 6.69767L15 17.3023C15 17.5116 14.9255 17.6802 14.7766 17.8081C14.6277 17.936 14.4539 18 14.2553 18C14.2057 18 14.0319 17.9302 13.734 17.7907L8.33511 12.7326C8.21099 12.6163 8.12411 12.5 8.07447 12.3837C8.02482 12.2674 8 12.1395 8 12C8 11.8605 8.02482 11.7326 8.07447 11.6163C8.12411 11.5 8.21099 11.3837 8.33511 11.2674Z"/>
</svg>
