<svg width="24" height="24" viewBox="0 0 24 24" fill="currentColor" xmlns="http://www.w3.org/2000/svg">
    <path d="M12.7326 8.33511L17.7907 13.734C17.8605 13.8085 17.9128 13.8892 17.9477 13.9761C17.9826 14.0629 18 14.156 18 14.2553C18 14.4539 17.936 14.6277 17.8081 14.7766C17.6802 14.9255 17.5116 15 17.3023 15L6.69767 15C6.48837 15 6.31977 14.9255 6.19186 14.7766C6.06395 14.6277 6 14.4539 6 14.2553C6 14.2057 6.06977 14.0319 6.2093 13.734L11.2674 8.33511C11.3837 8.21099 11.5 8.12411 11.6163 8.07447C11.7326 8.02482 11.8605 8 12 8C12.1395 8 12.2674 8.02482 12.3837 8.07447C12.5 8.12411 12.6163 8.21099 12.7326 8.33511Z"/>
</svg>

