<svg width="24" height="24" viewBox="0 0 24 24" fill="currentColor" xmlns="http://www.w3.org/2000/svg">
    <path d="M11.2674 15.6649L6.2093 10.266C6.13953 10.1915 6.08721 10.1108 6.05233 10.0239C6.01744 9.93706 6 9.84397 6 9.74468C6 9.5461 6.06395 9.37234 6.19186 9.2234C6.31977 9.07447 6.48837 9 6.69767 9H17.3023C17.5116 9 17.6802 9.07447 17.8081 9.2234C17.936 9.37234 18 9.5461 18 9.74468C18 9.79433 17.9302 9.96809 17.7907 10.266L12.7326 15.6649C12.6163 15.789 12.5 15.8759 12.3837 15.9255C12.2674 15.9752 12.1395 16 12 16C11.8605 16 11.7326 15.9752 11.6163 15.9255C11.5 15.8759 11.3837 15.789 11.2674 15.6649Z"/>
</svg>
