<svg width="24" height="24" viewBox="0 0 24 24" fill="currentColor" xmlns="http://www.w3.org/2000/svg">
    <path fill-rule="evenodd" clip-rule="evenodd" d="M19.9831 7.27989L10.8515 16.381L10.5651 18.3592L12.5969 18.0704L21.7175 9.00884C21.9276 8.77813 22.0416 8.476 22.0361 8.16399C22.0305 7.84676 21.9017 7.54409 21.6768 7.31975C21.452 7.0954 21.1486 6.96689 20.8307 6.96129C20.5176 6.95578 20.2144 7.06988 19.9831 7.27989ZM18.6337 5.85638C19.2386 5.29402 20.0386 4.98786 20.8653 5.00241C21.692 5.01697 22.4807 5.35109 23.0654 5.93439C23.65 6.5177 23.9849 7.30464 23.9995 8.12943C24.0141 8.95422 23.7072 9.75245 23.1436 10.356C23.1352 10.3649 23.1267 10.3737 23.1181 10.3823L13.7513 19.6884C13.6012 19.8376 13.4067 19.9343 13.197 19.9641L9.54452 20.4833C9.23838 20.5268 8.92957 20.4239 8.71111 20.2055C8.49265 19.9871 8.39008 19.6788 8.43428 19.3735L8.95465 15.7784C8.98497 15.5689 9.08245 15.3749 9.23251 15.2253L18.6091 5.88002C18.6171 5.872 18.6253 5.86412 18.6337 5.85638Z"/>
    <path fill-rule="evenodd" clip-rule="evenodd" d="M5.89105 1.95918V3.91837H12.273V1.95918H5.89105ZM3.92736 1.71429C3.92736 0.767512 4.69664 0 5.64559 0H12.5185C13.4674 0 14.2367 0.767512 14.2367 1.71429V4.16327C14.2367 5.11004 13.4674 5.87755 12.5185 5.87755H5.64559C4.69664 5.87755 3.92736 5.11004 3.92736 4.16327V1.71429Z"/>
    <path fill-rule="evenodd" clip-rule="evenodd" d="M12.273 2.93878C12.273 2.39776 12.7126 1.95918 13.2549 1.95918H15.7095C16.3605 1.95918 16.9848 2.2172 17.4451 2.67647C17.9054 3.13574 18.1641 3.75865 18.1641 4.40816C18.1641 4.94918 17.7245 5.38776 17.1822 5.38776C16.64 5.38776 16.2004 4.94918 16.2004 4.40816C16.2004 4.27826 16.1487 4.15368 16.0566 4.06183C15.9645 3.96997 15.8397 3.91837 15.7095 3.91837H13.2549C12.7126 3.91837 12.273 3.47979 12.273 2.93878Z"/>
    <path fill-rule="evenodd" clip-rule="evenodd" d="M2.4546 3.91837C2.3244 3.91837 2.19953 3.96997 2.10747 4.06183C2.0154 4.15368 1.96368 4.27826 1.96368 4.40816V21.551C1.96368 21.6809 2.0154 21.8055 2.10747 21.8974C2.19954 21.9892 2.3244 22.0408 2.4546 22.0408H15.7095C15.8397 22.0408 15.9645 21.9892 16.0566 21.8974C16.1487 21.8055 16.2004 21.6809 16.2004 21.551V18.6122C16.2004 18.0712 16.64 17.6327 17.1822 17.6327C17.7245 17.6327 18.1641 18.0712 18.1641 18.6122V21.551C18.1641 22.2005 17.9054 22.8234 17.4451 23.2827C16.9848 23.742 16.3605 24 15.7095 24H2.4546C1.8036 24 1.17926 23.742 0.718936 23.2827C0.25861 22.8234 0 22.2005 0 21.551V4.40816C0 3.75865 0.258609 3.13575 0.718936 2.67647C1.17926 2.2172 1.8036 1.95918 2.4546 1.95918H4.9092C5.45146 1.95918 5.89105 2.39776 5.89105 2.93878C5.89105 3.47979 5.45146 3.91837 4.9092 3.91837H2.4546Z"/>
    <path fill-rule="evenodd" clip-rule="evenodd" d="M4.41828 8.81633C4.41828 8.27531 4.85787 7.83673 5.40013 7.83673H12.273C12.8153 7.83673 13.2549 8.27531 13.2549 8.81633C13.2549 9.35734 12.8153 9.79592 12.273 9.79592H5.40013C4.85787 9.79592 4.41828 9.35734 4.41828 8.81633Z"/>
    <path fill-rule="evenodd" clip-rule="evenodd" d="M4.41828 13.2245C4.41828 12.6835 4.85787 12.2449 5.40013 12.2449H7.85473C8.39698 12.2449 8.83657 12.6835 8.83657 13.2245C8.83657 13.7655 8.39698 14.2041 7.85473 14.2041H5.40013C4.85787 14.2041 4.41828 13.7655 4.41828 13.2245Z"/>
</svg>
