<svg width="24" height="24" viewBox="0 0 24 24" fill="currentColor" xmlns="http://www.w3.org/2000/svg">
    <path fill-rule="evenodd" clip-rule="evenodd" d="M10.0816 16.174C10.0816 15.633 10.5202 15.1944 11.0612 15.1944H16.2041C16.7451 15.1944 17.1837 15.633 17.1837 16.174C17.1837 16.715 16.7451 17.1536 16.2041 17.1536H11.0612C10.5202 17.1536 10.0816 16.715 10.0816 16.174Z"/>
    <path fill-rule="evenodd" clip-rule="evenodd" d="M10.0816 11.7659C10.0816 11.2249 10.5202 10.7863 11.0612 10.7863H16.2041C16.7451 10.7863 17.1837 11.2249 17.1837 11.7659C17.1837 12.3069 16.7451 12.7455 16.2041 12.7455H11.0612C10.5202 12.7455 10.0816 12.3069 10.0816 11.7659Z"/>
    <path d="M6.77551 16.174C6.77551 15.4302 7.37854 14.8271 8.12245 14.8271C8.86636 14.8271 9.46939 15.4302 9.46939 16.174C9.46939 16.9179 8.86636 17.521 8.12245 17.521C7.37854 17.521 6.77551 16.9179 6.77551 16.174Z"/>
    <path d="M6.77551 11.7659C6.77551 11.022 7.37855 10.4189 8.12245 10.4189C8.86635 10.4189 9.46939 11.022 9.46939 11.7659C9.46939 12.5097 8.8664 13.1128 8.12245 13.1128C7.3785 13.1128 6.77551 12.5097 6.77551 11.7659Z"/>
    <path fill-rule="evenodd" clip-rule="evenodd" d="M11.7959 1.95918C11.0814 1.95918 10.3963 2.243 9.89106 2.7482C9.38587 3.2534 9.10204 3.9386 9.10204 4.65306C9.10204 5.19407 8.66346 5.63265 8.12245 5.63265H4.44898C4.31908 5.63265 4.19449 5.68426 4.10264 5.77611C4.01079 5.86796 3.95918 5.99255 3.95918 6.12245V21.551C3.95918 21.6809 4.01082 21.8056 4.10264 21.8974C4.19445 21.9892 4.31902 22.0408 4.44898 22.0408H19.1429C19.2728 22.0408 19.3975 21.9892 19.4892 21.8974C19.581 21.8056 19.6327 21.681 19.6327 21.551V6.12245C19.6327 5.99249 19.581 5.86792 19.4892 5.77611C19.3974 5.68428 19.2728 5.63265 19.1429 5.63265H15.4694C14.9284 5.63265 14.4898 5.19407 14.4898 4.65306C14.4898 3.93863 14.206 3.25343 13.7008 2.74822C13.7008 2.74821 13.7009 2.74824 13.7008 2.74822M11.7959 1.95918C12.5104 1.95918 13.1956 2.24303 13.7008 2.74822ZM8.5057 1.36286C9.37831 0.490235 10.5618 0 11.7959 0C13.03 0 14.2135 0.490239 15.0862 1.36283C15.724 2.00077 16.1577 2.80492 16.3447 3.67347H19.1429C19.7923 3.67347 20.4153 3.93147 20.8746 4.39076C21.3339 4.85007 21.5918 5.47301 21.5918 6.12245V21.551C21.5918 22.2004 21.3339 22.8234 20.8746 23.2827C20.4152 23.7421 19.7922 24 19.1429 24H4.44898C3.79954 24 3.1766 23.7421 2.71729 23.2827C2.258 22.8235 2 22.2005 2 21.551V6.12245C2 5.47294 2.25802 4.85003 2.71729 4.39076C3.17656 3.93149 3.79947 3.67347 4.44898 3.67347H7.24712C7.43419 2.80492 7.86776 2.0008 8.5057 1.36286Z"/>
    <path d="M10.449 4.29648C10.449 3.55256 11.052 2.94954 11.7959 2.94954C12.5398 2.94954 13.1429 3.55256 13.1429 4.29648C13.1429 5.04036 12.5398 5.64342 11.7959 5.64342C11.052 5.64342 10.449 5.04036 10.449 4.29648Z"/>
</svg>
