<svg width="24" height="24" viewBox="0 0 24 24" fill="currentColor" xmlns="http://www.w3.org/2000/svg">
    <path d="M8.23647 24.0016C7.54061 24.0016 6.83986 23.7517 6.28611 23.247C5.64416 22.6638 5.30113 21.8357 5.34033 20.9683L5.40894 19.5913C5.43344 19.0718 5.0365 18.6308 4.52196 18.6063C4.49256 18.6063 4.45826 18.6063 4.42395 18.6063L3.05184 18.6749C2.27757 18.719 1.53761 18.4544 0.964263 17.9349C0.386015 17.4155 0.0478867 16.7049 0.00378297 15.9307C-0.0403207 15.0535 0.302708 14.2155 0.954463 13.6275L1.97375 12.7062C2.15996 12.5396 2.26777 12.3093 2.28247 12.0544C2.29718 11.8045 2.20897 11.5644 2.04235 11.3782C2.02275 11.3537 1.99825 11.3341 1.97375 11.3096L0.949562 10.3785C0.381115 9.86396 0.0478867 9.1534 0.00868338 8.37914C-0.0305199 7.60487 0.239003 6.86491 0.758446 6.29156C1.3416 5.64961 2.17466 5.29678 3.04204 5.34578L4.41905 5.41439C4.66407 5.42909 4.91399 5.34088 5.10021 5.17427C5.28643 5.00765 5.39423 4.77733 5.40894 4.52741C5.40894 4.49311 5.40894 4.45881 5.40894 4.4294L5.34523 3.05239C5.26682 1.44505 6.50663 0.0876412 8.09926 0.00923461C8.96173 -0.0348691 9.7948 0.31306 10.378 0.955014L11.2992 1.9743C11.6472 2.35653 12.2401 2.39083 12.6223 2.0429C12.6419 2.0233 12.6664 1.9988 12.6909 1.9743L13.622 0.950113C14.6903 -0.230886 16.528 -0.323993 17.7139 0.744296C18.3656 1.33235 18.7087 2.17032 18.6645 3.04259L18.5959 4.4147C18.5812 4.66462 18.6694 4.90474 18.8361 5.09096C19.0027 5.27718 19.233 5.38498 19.4878 5.39969C19.5221 5.39969 19.5515 5.39969 19.5809 5.39969L20.953 5.33108C21.742 5.29678 22.4722 5.5565 23.0455 6.07594C23.6189 6.59539 23.957 7.31085 23.9962 8.08021C24.0403 8.95248 23.6924 9.79045 23.0455 10.3736L22.0262 11.2949C21.84 11.4615 21.7322 11.6918 21.7175 11.9466C21.7028 12.1966 21.791 12.4367 21.9576 12.6229C21.9772 12.6474 22.0017 12.667 22.0262 12.6915L23.0455 13.6128C23.6189 14.1322 23.957 14.8428 23.9962 15.617C24.0354 16.3913 23.7708 17.1313 23.2513 17.7095C22.6633 18.3613 21.8204 18.7092 20.953 18.6602L19.5809 18.5916C19.0517 18.5769 18.6204 18.964 18.5959 19.4835C18.5959 19.5178 18.5959 19.5472 18.5959 19.5815L18.6645 20.9536C18.6988 21.7328 18.4293 22.4727 17.9099 23.0461C17.3855 23.6194 16.675 23.9526 15.9007 23.9869C15.0235 24.0261 14.215 23.6831 13.6318 23.0461L12.7056 22.0219C12.3577 21.6347 11.7599 21.6053 11.3776 21.9533C11.358 21.9729 11.3335 21.9974 11.309 22.0219L10.3829 23.0412C9.8095 23.6684 9.02544 23.9869 8.23647 23.9869V24.0016ZM4.47296 16.6461C4.52196 16.6461 4.57097 16.6461 4.61997 16.6461C6.2175 16.7294 7.44751 18.0966 7.3691 19.6893L7.30049 21.0614C7.28579 21.3358 7.3985 21.6053 7.60922 21.7965C7.99145 22.1444 8.5893 22.115 8.93723 21.7328L9.86341 20.7135C9.92711 20.6449 9.99572 20.5763 10.0692 20.5077C11.26 19.4345 13.0977 19.5276 14.166 20.7135L15.0872 21.7328C15.2735 21.9337 15.5332 22.0415 15.8174 22.0317C16.0673 22.0219 16.2976 21.9141 16.4692 21.7279C16.6358 21.5416 16.724 21.3015 16.7142 21.0516L16.6456 19.6844C16.6407 19.5864 16.6407 19.4884 16.6456 19.3855C16.6848 18.6112 17.0229 17.9006 17.6012 17.3812C18.1745 16.8617 18.9243 16.5971 19.6936 16.6363L21.0657 16.7049C21.3549 16.7098 21.6195 16.6069 21.8106 16.3962C21.9772 16.21 22.0654 15.9699 22.0507 15.72C22.036 15.47 21.9282 15.2397 21.742 15.0682L20.7227 14.1469C20.6492 14.0832 20.5806 14.0097 20.512 13.9362C19.9926 13.3629 19.7279 12.618 19.7671 11.8437C19.8063 11.0695 20.1445 10.3589 20.7178 9.83946L21.7371 8.91818C21.9478 8.72706 22.0605 8.45754 22.0458 8.17332C22.036 7.9234 21.9233 7.69308 21.7371 7.52156C21.5509 7.35005 21.3059 7.26674 21.0608 7.28144L19.6887 7.35005C19.5907 7.35005 19.4927 7.35005 19.3996 7.35005C18.6302 7.31085 17.9148 6.97272 17.3953 6.39937C16.8759 5.82602 16.6113 5.08116 16.6505 4.31179L16.7191 2.93968C16.7338 2.65546 16.6211 2.38593 16.4104 2.19482C16.0232 1.84689 15.4303 1.87629 15.0823 2.26342L14.1513 3.28271C14.0876 3.35131 14.019 3.42482 13.9455 3.48853C12.7547 4.56172 10.9219 4.46371 9.84871 3.27781L8.92743 2.25852C8.74121 2.05271 8.46679 1.94 8.18747 1.9547C7.66803 1.9792 7.26619 2.42024 7.29069 2.93968L7.3544 4.31179C7.3593 4.4098 7.3593 4.51271 7.3544 4.61562C7.3152 5.38988 6.97217 6.10044 6.39882 6.61989C5.82547 7.13933 5.08061 7.40395 4.30634 7.35985L2.93423 7.29124C2.65491 7.27654 2.38538 7.38925 2.19917 7.59997C2.03255 7.78619 1.94435 8.02631 1.95905 8.27623C1.96885 8.52615 2.08156 8.75647 2.26777 8.92798L3.28706 9.85416C3.35566 9.91786 3.42427 9.98647 3.49288 10.06C4.01232 10.6382 4.27694 11.3782 4.23774 12.1525C4.19853 12.9267 3.86041 13.6373 3.28706 14.1567L2.26777 15.078C2.05705 15.2691 1.94435 15.5386 1.95905 15.8229C1.97375 16.0728 2.08156 16.3031 2.26777 16.4697C2.45399 16.6363 2.69411 16.7245 2.94403 16.7098L4.31614 16.6412C4.36515 16.6412 4.41415 16.6412 4.46316 16.6412L4.47296 16.6461Z"/>
    <path d="M12.0049 17.3959C9.03034 17.3959 6.61444 14.98 6.61444 12.0054C6.61444 9.03089 9.03034 6.61499 12.0049 6.61499C14.9794 6.61499 17.3953 9.03089 17.3953 12.0054C17.3953 14.98 14.9794 17.3959 12.0049 17.3959ZM12.0049 8.57515C10.1133 8.57515 8.5746 10.1139 8.5746 12.0054C8.5746 13.897 10.1133 15.4357 12.0049 15.4357C13.8964 15.4357 15.4352 13.897 15.4352 12.0054C15.4352 10.1139 13.8964 8.57515 12.0049 8.57515Z"/>
</svg>
