<svg width="24" height="24" viewBox="0 0 24 24" fill="currentColor" xmlns="http://www.w3.org/2000/svg">
    <path fill-rule="evenodd" clip-rule="evenodd" d="M6 6C6.27051 5.72949 6.70909 5.72949 6.97959 6L12 11.0204L17.0204 6C17.2909 5.72949 17.7295 5.72949 18 6C18.2705 6.27051 18.2705 6.70908 18 6.97959L12.9796 12L18 17.0204C18.2705 17.2909 18.2705 17.7295 18 18C17.7295 18.2705 17.2909 18.2705 17.0204 18L12 12.9796L6.97959 18C6.70909 18.2705 6.27051 18.2705 6 18C5.72949 17.7295 5.72949 17.2909 6 17.0204L11.0204 12L6 6.97959C5.72949 6.70908 5.72949 6.27051 6 6Z"/>
</svg>
