<svg width="24" height="24" viewBox="0 0 24 24" fill="currentColor" xmlns="http://www.w3.org/2000/svg">
    <path d="M13.5442 7.17172V2.62239C13.5442 2.30016 13.6515 2.03255 13.8662 1.81954C14.0809 1.60651 14.3469 1.5 14.6643 1.5H21.3849C21.7023 1.5 21.9675 1.60651 22.1805 1.81954C22.3935 2.03255 22.5 2.30016 22.5 2.62239V7.17172C22.5 7.49396 22.3926 7.76159 22.178 7.9746C21.9633 8.1876 21.6972 8.29411 21.3799 8.29411H14.6592C14.3419 8.29411 14.0767 8.1876 13.8637 7.9746C13.6507 7.76159 13.5442 7.49396 13.5442 7.17172ZM1.5 11.5058V2.61155C1.5 2.29655 1.60735 2.03255 1.82204 1.81954C2.03674 1.60651 2.30277 1.5 2.62014 1.5H9.34077C9.65814 1.5 9.92333 1.60656 10.1363 1.81966C10.3493 2.03275 10.4558 2.2968 10.4558 2.6118V11.5061C10.4558 11.8211 10.3485 12.0851 10.1338 12.2981C9.91914 12.5111 9.65311 12.6176 9.33574 12.6176H2.61507C2.29772 12.6176 2.03255 12.5111 1.81954 12.298C1.60651 12.0849 1.5 11.8208 1.5 11.5058ZM13.5442 21.3882V12.4939C13.5442 12.1789 13.6515 11.9149 13.8662 11.7019C14.0809 11.4889 14.3469 11.3824 14.6643 11.3824H21.3849C21.7023 11.3824 21.9675 11.4889 22.1805 11.702C22.3935 11.9151 22.5 12.1792 22.5 12.4942V21.3884C22.5 21.7034 22.3926 21.9675 22.178 22.1805C21.9633 22.3935 21.6972 22.5 21.3799 22.5H14.6592C14.3419 22.5 14.0767 22.3934 13.8637 22.1803C13.6507 21.9672 13.5442 21.7032 13.5442 21.3882ZM1.5 21.3776V16.8283C1.5 16.506 1.60735 16.2384 1.82204 16.0254C2.03674 15.8124 2.30277 15.7059 2.62014 15.7059H9.34077C9.65814 15.7059 9.92333 15.8124 10.1363 16.0254C10.3493 16.2384 10.4558 16.506 10.4558 16.8283V21.3776C10.4558 21.6998 10.3485 21.9675 10.1338 22.1805C9.91914 22.3935 9.65311 22.5 9.33574 22.5H2.61507C2.29772 22.5 2.03255 22.3935 1.81954 22.1805C1.60651 21.9675 1.5 21.6998 1.5 21.3776ZM3.35292 10.7647H8.60296V3.35292H3.35292V10.7647ZM15.397 20.6471H20.6471V13.2353H15.397V20.6471ZM15.397 6.44119H20.6471V3.35292H15.397V6.44119ZM3.35292 20.6471H8.60296V17.5588H3.35292V20.6471Z"/>
</svg>
