<svg width="24" height="24" viewBox="0 0 24 24" fill="currentColor" xmlns="http://www.w3.org/2000/svg">
    <path fill-rule="evenodd" clip-rule="evenodd" d="M2.44898 1.95918C2.17847 1.95918 1.95918 2.17847 1.95918 2.44898V21.551C1.95918 21.8215 2.17847 22.0408 2.44898 22.0408H21.551C21.8215 22.0408 22.0408 21.8215 22.0408 21.551V2.44898C22.0408 2.17847 21.8215 1.95918 21.551 1.95918H2.44898ZM0 2.44898C0 1.09645 1.09645 0 2.44898 0H21.551C22.9036 0 24 1.09645 24 2.44898V21.551C24 22.9036 22.9036 24 21.551 24H2.44898C1.09645 24 0 22.9036 0 21.551V2.44898Z"/>
    <path fill-rule="evenodd" clip-rule="evenodd" d="M12 15.6735C12 15.1325 12.4386 14.6939 12.9796 14.6939H18.6122C19.1533 14.6939 19.5918 15.1325 19.5918 15.6735C19.5918 16.2145 19.1533 16.6531 18.6122 16.6531H12.9796C12.4386 16.6531 12 16.2145 12 15.6735Z"/>
    <path fill-rule="evenodd" clip-rule="evenodd" d="M4.40816 15.6735C4.40816 15.1325 4.84674 14.6939 5.38776 14.6939H8.08163C8.62265 14.6939 9.06122 15.1325 9.06122 15.6735C9.06122 16.2145 8.62265 16.6531 8.08163 16.6531H5.38776C4.84674 16.6531 4.40816 16.2145 4.40816 15.6735Z"/>
    <path fill-rule="evenodd" clip-rule="evenodd" d="M10.5306 14.2041C10.24 14.2041 9.9559 14.2903 9.71426 14.4517C9.47263 14.6132 9.28429 14.8427 9.17307 15.1112C9.06186 15.3797 9.03276 15.6751 9.08946 15.9601C9.14615 16.2452 9.2861 16.507 9.4916 16.7125C9.6971 16.918 9.95892 17.0579 10.2439 17.1146C10.529 17.1713 10.8244 17.1422 11.0929 17.031C11.3614 16.9198 11.5909 16.7315 11.7524 16.4898C11.9138 16.2482 12 15.9641 12 15.6735C12 15.2838 11.8452 14.91 11.5696 14.6345C11.2941 14.3589 10.9203 14.2041 10.5306 14.2041ZM8.6258 12.8227C9.18963 12.446 9.85251 12.2449 10.5306 12.2449C11.4399 12.2449 12.312 12.6061 12.955 13.2491C13.598 13.8921 13.9592 14.7642 13.9592 15.6735C13.9592 16.3516 13.7581 17.0145 13.3814 17.5783C13.0046 18.1421 12.4692 18.5816 11.8427 18.8411C11.2162 19.1006 10.5268 19.1685 9.86173 19.0362C9.19665 18.9039 8.58574 18.5773 8.10625 18.0978C7.62675 17.6183 7.30021 17.0074 7.16792 16.3424C7.03563 15.6773 7.10352 14.9879 7.36303 14.3614C7.62253 13.7349 8.06197 13.1995 8.6258 12.8227Z"/>
    <path fill-rule="evenodd" clip-rule="evenodd" d="M4.40816 8.32653C4.40816 7.78552 4.84674 7.34694 5.38776 7.34694H13.9592C14.5002 7.34694 14.9388 7.78552 14.9388 8.32653C14.9388 8.86754 14.5002 9.30612 13.9592 9.30612H5.38776C4.84674 9.30612 4.40816 8.86754 4.40816 8.32653Z"/>
    <path fill-rule="evenodd" clip-rule="evenodd" d="M15.7393 4.96384C16.4044 4.83155 17.0937 4.89944 17.7202 5.15894C18.3467 5.41844 18.8822 5.85789 19.2589 6.42172C19.6357 6.98554 19.8367 7.64842 19.8367 8.32653C19.8367 9.23584 19.4755 10.1079 18.8325 10.7509C18.1895 11.3939 17.3175 11.7551 16.4082 11.7551C15.7301 11.7551 15.0672 11.554 14.5034 11.1773C13.9395 10.8005 13.5001 10.2651 13.2406 9.63859C12.9811 9.0121 12.9132 8.32273 13.0455 7.65765C13.1778 6.99257 13.5043 6.38166 13.9838 5.90216C14.4633 5.42267 15.0742 5.09613 15.7393 4.96384ZM16.9705 6.96899C16.702 6.85778 16.4065 6.82868 16.1215 6.88538C15.8365 6.94207 15.5746 7.08202 15.3692 7.28752C15.1637 7.49301 15.0237 7.75483 14.967 8.03987C14.9103 8.3249 14.9394 8.62035 15.0506 8.88884C15.1618 9.15734 15.3502 9.38682 15.5918 9.54828C15.8335 9.70974 16.1175 9.79592 16.4082 9.79592C16.7979 9.79592 17.1716 9.64111 17.4472 9.36554C17.7227 9.08998 17.8776 8.71624 17.8776 8.32653C17.8776 8.03591 17.7914 7.75182 17.6299 7.51018C17.4685 7.26854 17.239 7.08021 16.9705 6.96899Z"/>
</svg>
