<svg width="24" height="24" viewBox="0 0 24 24" fill="currentColor" xmlns="http://www.w3.org/2000/svg">
    <path d="M5.25 15.5957C5.25 14.5602 4.41053 13.7207 3.375 13.7207C2.33947 13.7207 1.5 14.5602 1.5 15.5957C1.5 16.6312 2.33947 17.4707 3.375 17.4707C4.41053 17.4707 5.25 16.6312 5.25 15.5957Z"/>
    <path d="M11.3672 8.875C11.3672 7.83947 10.5277 7 9.49219 7C8.45665 7 7.61719 7.83947 7.61719 8.875C7.61719 9.91053 8.45665 10.75 9.49219 10.75C10.5277 10.75 11.3672 9.91053 11.3672 8.875Z"/>
    <path d="M22.3125 11.8164C22.3125 10.7809 21.473 9.94141 20.4375 9.94141C19.402 9.94141 18.5625 10.7809 18.5625 11.8164C18.5625 12.8519 19.402 13.6914 20.4375 13.6914C21.473 13.6914 22.3125 12.8519 22.3125 11.8164Z"/>
</svg>
