<svg width="24" height="24" viewBox="0 0 24 24" fill="currentColor" xmlns="http://www.w3.org/2000/svg">
    <path d="M5 15C5 14.1716 4.32843 13.5 3.5 13.5C2.67157 13.5 2 14.1716 2 15C2 15.8284 2.67157 16.5 3.5 16.5C4.32843 16.5 5 15.8284 5 15Z"/>
    <path d="M11 8.5C11 7.67157 10.3284 7 9.5 7C8.67157 7 8 7.67157 8 8.5C8 9.32843 8.67157 10 9.5 10C10.3284 10 11 9.32843 11 8.5Z"/>
    <path d="M22 11.5C22 10.6716 21.3284 10 20.5 10C19.6716 10 19 10.6716 19 11.5C19 12.3284 19.6716 13 20.5 13C21.3284 13 22 12.3284 22 11.5Z"/>
    <path fill-rule="evenodd" clip-rule="evenodd" d="M9.3494 7.51752L20.7318 10.576L20.3426 12.0247L9.84236 9.20319L4.02296 15.5857L2.91454 14.575L9.3494 7.51752Z"/>
</svg>
