<svg width="24" height="24" viewBox="0 0 24 24" fill="currentColor" xmlns="http://www.w3.org/2000/svg">
    <path fill-rule="evenodd" clip-rule="evenodd" d="M2.25 22.771C2.25 22.3568 2.58579 22.021 3 22.021H21C21.4142 22.021 21.75 22.3568 21.75 22.771C21.75 23.1852 21.4142 23.521 21 23.521H3C2.58579 23.521 2.25 23.1852 2.25 22.771Z"/>
    <path fill-rule="evenodd" clip-rule="evenodd" d="M10.6731 10.021V22.771H9.17308V9.721C9.17308 9.05825 9.71034 8.521 10.3731 8.521H13.6269C14.2897 8.521 14.8269 9.05825 14.8269 9.721V22.771H13.3269V10.021H10.6731ZM17.5962 14.6762V22.771H16.0962V14.3762C16.0962 13.7134 16.6334 13.1762 17.2962 13.1762H20.55C21.2127 13.1762 21.75 13.7134 21.75 14.3762V22.771H20.25V14.6762H17.5962ZM3.75 17.4693V22.771H2.25V17.1693C2.25 16.5065 2.78726 15.9693 3.45 15.9693H6.70385C7.36659 15.9693 7.90385 16.5065 7.90385 17.1693V22.771H6.40385V17.4693H3.75Z"/>
    <path d="M5.25 8.5957C5.25 7.56017 4.41053 6.7207 3.375 6.7207C2.33947 6.7207 1.5 7.56017 1.5 8.5957C1.5 9.63124 2.33947 10.4707 3.375 10.4707C4.41053 10.4707 5.25 9.63124 5.25 8.5957Z"/>
    <path fill-rule="evenodd" clip-rule="evenodd" d="M3.375 8.2207C3.58211 8.2207 3.75 8.3886 3.75 8.5957C3.75 8.80281 3.58211 8.9707 3.375 8.9707C3.16789 8.9707 3 8.80281 3 8.5957C3 8.3886 3.16789 8.2207 3.375 8.2207ZM3.375 6.7207C4.41053 6.7207 5.25 7.56017 5.25 8.5957C5.25 9.63124 4.41053 10.4707 3.375 10.4707C2.33947 10.4707 1.5 9.63124 1.5 8.5957C1.5 7.56017 2.33947 6.7207 3.375 6.7207Z"/>
    <path d="M11.3672 1.875C11.3672 0.839466 10.5277 0 9.49219 0C8.45665 0 7.61719 0.839466 7.61719 1.875C7.61719 2.91053 8.45665 3.75 9.49219 3.75C10.5277 3.75 11.3672 2.91053 11.3672 1.875Z"/>
    <path fill-rule="evenodd" clip-rule="evenodd" d="M9.49219 1.5C9.69929 1.5 9.86719 1.66789 9.86719 1.875C9.86719 2.08211 9.69929 2.25 9.49219 2.25C9.28508 2.25 9.11719 2.08211 9.11719 1.875C9.11719 1.66789 9.28508 1.5 9.49219 1.5ZM9.49219 0C10.5277 0 11.3672 0.839466 11.3672 1.875C11.3672 2.91053 10.5277 3.75 9.49219 3.75C8.45665 3.75 7.61719 2.91053 7.61719 1.875C7.61719 0.839466 8.45665 0 9.49219 0Z"/>
    <path d="M22.3125 4.81641C22.3125 3.78087 21.473 2.94141 20.4375 2.94141C19.402 2.94141 18.5625 3.78087 18.5625 4.81641C18.5625 5.85194 19.402 6.69141 20.4375 6.69141C21.473 6.69141 22.3125 5.85194 22.3125 4.81641Z"/>
    <path fill-rule="evenodd" clip-rule="evenodd" d="M20.4375 4.44141C20.6446 4.44141 20.8125 4.6093 20.8125 4.81641C20.8125 5.02351 20.6446 5.19141 20.4375 5.19141C20.2304 5.19141 20.0625 5.02351 20.0625 4.81641C20.0625 4.6093 20.2304 4.44141 20.4375 4.44141ZM20.4375 2.94141C21.473 2.94141 22.3125 3.78087 22.3125 4.81641C22.3125 5.85194 21.473 6.69141 20.4375 6.69141C19.402 6.69141 18.5625 5.85194 18.5625 4.81641C18.5625 3.78087 19.402 2.94141 20.4375 2.94141Z"/>
    <path fill-rule="evenodd" clip-rule="evenodd" d="M9.3494 1.01752L20.7318 4.07604L20.3426 5.52466L9.84236 2.70319L4.02296 9.08567L2.91454 8.07503L9.3494 1.01752Z"/>
</svg>
