<svg width="24" height="24" viewBox="0 0 24 24" fill="currentColor" xmlns="http://www.w3.org/2000/svg">
    <path fill-rule="evenodd" clip-rule="evenodd" d="M2.25 19.25C2.25 18.8358 2.58579 18.5 3 18.5H21C21.4142 18.5 21.75 18.8358 21.75 19.25C21.75 19.6642 21.4142 20 21 20H3C2.58579 20 2.25 19.6642 2.25 19.25Z"/>
    <path fill-rule="evenodd" clip-rule="evenodd" d="M10.6731 6.5V19.25H9.17308V6.2C9.17308 5.53726 9.71034 5 10.3731 5H13.6269C14.2897 5 14.8269 5.53726 14.8269 6.2V19.25H13.3269V6.5H10.6731ZM17.5962 11.1552V19.25H16.0962V10.8552C16.0962 10.1924 16.6334 9.65517 17.2962 9.65517H20.55C21.2127 9.65517 21.75 10.1924 21.75 10.8552V19.25H20.25V11.1552H17.5962ZM3.75 13.9483V19.25H2.25V13.6483C2.25 12.9855 2.78726 12.4483 3.45 12.4483H6.70385C7.36659 12.4483 7.90385 12.9855 7.90385 13.6483V19.25H6.40385V13.9483H3.75Z"/>
</svg>
