<svg width="24" height="24" viewBox="0 0 24 24" fill="currentColor" xmlns="http://www.w3.org/2000/svg">
    <path fill-rule="evenodd" clip-rule="evenodd" d="M9.5704 11.0165L8.56955 13.0188L8.56839 13.0211C8.4561 13.2443 8.28401 13.4319 8.07133 13.5629C7.85874 13.6939 7.61393 13.7632 7.36423 13.7632H0.979547C0.438558 13.7632 0 13.3246 0 12.7836C0 12.2427 0.438558 11.8041 0.979547 11.8041H6.98654L8.50292 8.77045C8.62195 8.52807 8.81108 8.32698 9.04584 8.19331C9.28311 8.05822 9.55581 7.99837 9.82785 8.02168C10.0999 8.045 10.3584 8.15038 10.5692 8.32389C10.778 8.4957 10.9302 8.72628 11.0062 8.98562L12.1652 12.8466L13.0366 10.8129L13.0377 10.8103C13.1337 10.5882 13.2876 10.396 13.4834 10.2539C13.6792 10.1119 13.9096 10.0251 14.1505 10.0027C14.3914 9.98033 14.6338 10.0232 14.8524 10.1268C15.0711 10.2305 15.2577 10.391 15.3929 10.5916L15.3956 10.5956L16.198 11.7992H23.0203C23.5613 11.7992 23.9999 12.2378 23.9999 12.7787C23.9999 13.3197 23.5613 13.7583 23.0203 13.7583H15.6737C15.3462 13.7583 15.0404 13.5946 14.8587 13.3221L14.3925 12.6228L13.2995 15.1736C13.2966 15.1802 13.2937 15.1869 13.2907 15.1934C13.1782 15.4408 12.9934 15.6485 12.7607 15.789C12.5281 15.9295 12.2583 15.9964 11.987 15.9809C11.7156 15.9654 11.4552 15.8682 11.2401 15.7021C11.0249 15.536 10.8651 15.3087 10.7814 15.05C10.7793 15.0435 10.7772 15.0369 10.7752 15.0302L9.5704 11.0165Z"/>
    <path d="M5.80424 3.51819C6.52012 3.40204 7.25336 3.45765 7.94353 3.68045C8.6337 3.90324 9.26124 4.28703 9.77409 4.79982L11.3081 6.33282C11.6906 6.71507 12.3104 6.71507 12.6929 6.33282L14.2271 4.79964C14.7399 4.28684 15.3673 3.90324 16.0575 3.68045C16.7476 3.45765 17.4809 3.40204 18.1967 3.51819C18.9126 3.63434 19.5907 3.91892 20.175 4.3485C20.7593 4.77806 21.2332 5.3403 21.5576 5.98891C21.9872 6.84811 22.1356 7.8207 21.9818 8.76894C21.863 9.50158 21.5684 10.191 21.1274 10.78H23.0199C23.1431 10.78 23.2637 10.7913 23.3808 10.8131C23.637 10.2671 23.818 9.68508 23.9157 9.08259C24.1353 7.72851 23.9233 6.33965 23.3098 5.11272C22.8466 4.18647 22.1698 3.38348 21.3354 2.77005C20.501 2.15662 19.5328 1.75023 18.5105 1.58437C17.4882 1.41851 16.4412 1.49793 15.4556 1.81608C14.4701 2.1342 13.5744 2.68191 12.842 3.41409L12.0005 4.2551L11.1591 3.41427C10.4268 2.6821 9.53084 2.1342 8.54537 1.81608C7.55981 1.49793 6.51276 1.41851 5.49049 1.58437C4.46822 1.75023 3.49999 2.15662 2.66558 2.77005C1.83125 3.38342 1.15445 4.18651 0.691195 5.11264C0.0769364 6.34002 -0.135328 7.72963 0.0845069 9.08442C0.182443 9.68798 0.363924 10.271 0.620914 10.8177C0.737426 10.7962 0.857446 10.785 0.979995 10.785H2.87561C2.43302 10.1953 2.13743 9.50469 2.01832 8.77063C1.86437 7.82188 2.01317 6.84849 2.44337 5.98898C2.76778 5.34035 3.24168 4.77808 3.826 4.3485C4.41033 3.91892 5.08836 3.63434 5.80424 3.51819Z"/>
    <path d="M6.62826 14.7449H3.91415L11.2934 22.4413C11.4782 22.634 11.7336 22.7429 12.0005 22.7429C12.2675 22.7429 12.5229 22.634 12.7076 22.4412L20.0902 14.7399H17.3763L12.0004 20.3479L6.62826 14.7449Z"/>
</svg>
