<svg width="24" height="24" viewBox="0 0 24 24" fill="currentColor" xmlns="http://www.w3.org/2000/svg">
    <path fill-rule="evenodd" clip-rule="evenodd" d="M11.4152 0.197329C11.7644 -0.065873 12.2458 -0.0657665 12.5949 0.19759L23.2411 8.22926C23.2672 8.24898 23.2924 8.27 23.3164 8.29223C23.7226 8.66806 23.9671 9.18683 23.9984 9.7393C23.9995 9.75775 24 9.77623 24 9.79472V22.0626L24 22.0666C23.9979 22.5791 23.7932 23.0699 23.4306 23.4321C23.068 23.7943 22.5769 23.9984 22.0644 24L22.0614 24H15.6735C15.1325 24 14.6939 23.5615 14.6939 23.0205V17.8783C14.6939 17.1639 14.4101 16.4788 13.9049 15.9737C13.3997 15.4685 12.7145 15.1848 12 15.1848C11.2855 15.1848 10.6003 15.4685 10.0951 15.9737C9.58994 16.4788 9.30612 17.1639 9.30612 17.8783V23.0176C9.30612 23.5585 8.86754 23.9971 8.32653 23.9971H1.93763L1.93464 23.9971C1.42203 23.9955 0.930853 23.7912 0.568376 23.4288C0.205899 23.0663 0.00156983 22.5752 4.55428e-06 22.0627L0 22.0597V9.79472C0 9.77668 0.000498285 9.75865 0.00149421 9.74064C0.0321057 9.18712 0.277111 8.66728 0.684569 8.29132C0.70841 8.26932 0.733329 8.24852 0.759235 8.229L11.4152 0.197329ZM1.9947 9.75097C1.97582 9.77489 1.96353 9.80344 1.95918 9.83374V22.0381H7.34694V17.8783C7.34694 16.6444 7.83717 15.461 8.70979 14.5885C9.58241 13.716 10.7659 13.2258 12 13.2258C13.2341 13.2258 14.4176 13.716 15.2902 14.5885C16.1628 15.461 16.6531 16.6444 16.6531 17.8783V22.0411H22.0408V9.8346C22.0363 9.80378 22.0238 9.77475 22.0046 9.7504L12.0046 2.20626L1.9947 9.75097Z"/>
</svg>
