<svg width="24" height="24" viewBox="0 0 24 24" fill="currentColor" xmlns="http://www.w3.org/2000/svg">
    <path d="M10.7146 6.8605C10.7146 6.15064 11.2901 5.57519 12 5.57519C12.7098 5.57519 13.2853 6.15064 13.2853 6.8605C13.2853 7.57037 12.7098 8.14582 12 8.14582C11.2901 8.14582 10.7146 7.57037 10.7146 6.8605Z"/>
    <path d="M10.2862 9.85603C9.81296 9.85603 9.42932 10.2397 9.42932 10.7129C9.42932 11.1862 9.81296 11.5698 10.2862 11.5698H11.1431V16.7111H10.2862C9.81296 16.7111 9.42932 17.0947 9.42932 17.5679C9.42932 18.0412 9.81296 18.4248 10.2862 18.4248H13.7137C14.187 18.4248 14.5706 18.0412 14.5706 17.5679C14.5706 17.0947 14.187 16.7111 13.7137 16.7111H12.8568V10.7129C12.8568 10.2397 12.4732 9.85603 12 9.85603H10.2862Z"/>
    <path fill-rule="evenodd" clip-rule="evenodd" d="M0 12C0 18.6171 5.38286 24 12 24C12.4135 24 12.8223 23.979 13.2252 23.9379C18.866 23.3634 23.3634 18.8661 23.9379 13.2252C23.979 12.8223 24 12.4136 24 12C24 5.38286 18.6171 0 12 0C5.38286 0 0 5.38286 0 12ZM12 1.95918C17.5347 1.95918 22.0408 6.46531 22.0408 12C22.0408 12.3459 22.0232 12.6878 21.9889 13.0249C21.5122 17.7012 17.8103 21.4406 13.151 21.9752C12.7732 22.0185 12.3892 22.0408 12 22.0408C11.6541 22.0408 11.3122 22.0232 10.9751 21.9889C6.15135 21.4972 2.32453 17.5736 1.98387 12.7075C1.9675 12.4737 1.95918 12.2378 1.95918 12C1.95918 6.46615 6.46393 1.96056 11.9975 1.95918L12 1.95918Z"/>
</svg>
