<svg width="24" height="24" viewBox="0 0 24 24" fill="currentColor" xmlns="http://www.w3.org/2000/svg">
    <path d="M12.5625 14.2C12.5625 13.5925 12.0868 13.1 11.5 13.1C10.9132 13.1 10.4375 13.5925 10.4375 14.2V16.4C10.4375 17.0075 10.9132 17.5 11.5 17.5C12.0868 17.5 12.5625 17.0075 12.5625 16.4V14.2Z"/>
    <path fill-rule="evenodd" clip-rule="evenodd" d="M6.1875 7.73241C4.39836 8.18539 3 9.75577 3 11.7461V17.8385C3 20.7703 5.46017 23 8.3125 23H14.6875C17.5399 23 20 20.7703 20 17.8385V11.7461C20 9.75577 18.6016 8.18539 16.8125 7.73241V6.5C16.8125 3.46244 14.434 1 11.5 1C8.56599 1 6.1875 3.46244 6.1875 6.5V7.73241ZM14.6875 6.5V7.6H8.3125V6.5C8.3125 6.1143 8.37641 5.74406 8.49388 5.4C8.93145 4.11829 10.1122 3.2 11.5 3.2C12.8878 3.2 14.0686 4.11829 14.5061 5.4C14.6235 5.74406 14.6875 6.1143 14.6875 6.5ZM5.125 11.7461C5.125 10.7526 5.99472 9.8 7.25 9.8H15.75C17.0052 9.8 17.875 10.7526 17.875 11.7461V17.8385C17.875 19.3929 16.5296 20.8 14.6875 20.8H8.3125C6.47041 20.8 5.125 19.3929 5.125 17.8385V11.7461Z"/>
</svg>
