<svg width="24" height="24" viewBox="0 0 24 24" fill="currentColor" xmlns="http://www.w3.org/2000/svg">
    <path fill-rule="evenodd" clip-rule="evenodd" d="M19.4363 0.000104158C20.0365 -0.00396008 20.6316 0.110954 21.1872 0.338206C21.7427 0.565459 22.2477 0.900545 22.673 1.32411L22.6759 1.32695C23.0994 1.75226 23.4345 2.25728 23.6618 2.81284C23.889 3.36839 24.0039 3.96348 23.9999 4.5637C23.9958 5.16393 23.8729 5.7574 23.6381 6.30983C23.4041 6.86039 23.0638 7.35932 22.6365 7.77798L8.43626 21.9782C8.31215 22.1023 8.15697 22.1908 7.98696 22.2344L1.22296 23.9693C0.887594 24.0553 0.531735 23.9579 0.286922 23.7131C0.0421095 23.4683 -0.0552919 23.1124 0.0307223 22.777L1.76556 16.013C1.80916 15.843 1.89765 15.6878 2.02176 15.5637L16.2219 1.36357C16.6406 0.936282 17.1395 0.595866 17.6902 0.361885C18.2426 0.12713 18.8361 0.00416834 19.4363 0.000104158ZM20.4454 2.15153C20.1294 2.02227 19.7909 1.95691 19.4496 1.95922C19.1082 1.96153 18.7706 2.03147 18.4564 2.16499C18.1422 2.29852 17.8575 2.49298 17.6189 2.73715L17.611 2.74515L3.59668 16.7595L2.33973 21.6603L7.24051 20.4033L21.2548 6.38898L21.2628 6.38107C21.507 6.14245 21.7015 5.85781 21.835 5.5436C21.9685 5.22939 22.0385 4.89183 22.0408 4.55044C22.0431 4.20904 21.9777 3.87057 21.8485 3.55458C21.7195 3.23923 21.5294 2.9525 21.2892 2.71091C21.0475 2.47065 20.7608 2.28054 20.4454 2.15153Z"/>
    <path fill-rule="evenodd" clip-rule="evenodd" d="M15.8191 1.76634C16.2017 1.38379 16.8219 1.38379 17.2045 1.76634L22.2336 6.79551C22.6162 7.17806 22.6162 7.79829 22.2336 8.18084C21.8511 8.56339 21.2309 8.56339 20.8483 8.18084L15.8191 3.15168C15.4366 2.76913 15.4366 2.14889 15.8191 1.76634Z"/>
    <path fill-rule="evenodd" clip-rule="evenodd" d="M13.7679 3.81758C14.1505 3.43503 14.7707 3.43503 15.1532 3.81758L20.1824 8.84675C20.565 9.2293 20.565 9.84953 20.1824 10.2321C19.7999 10.6146 19.1796 10.6146 18.7971 10.2321L13.7679 5.20292C13.3854 4.82037 13.3854 4.20013 13.7679 3.81758Z"/>
    <path fill-rule="evenodd" clip-rule="evenodd" d="M2.02108 15.5644C2.40326 15.1815 3.0235 15.1809 3.40642 15.5631L8.44048 20.5873C8.82341 20.9695 8.82401 21.5897 8.44183 21.9727C8.05966 22.3556 7.43942 22.3562 7.0565 21.974L2.02243 16.9497C1.63951 16.5676 1.63891 15.9473 2.02108 15.5644Z"/>
</svg>
