<svg width="24" height="24" viewBox="0 0 24 24" fill="currentColor" xmlns="http://www.w3.org/2000/svg">
    <path fill-rule="evenodd" clip-rule="evenodd" d="M13.3824 1.82087C14.5493 0.654686 16.1318 -0.000158245 17.7816 0.000397081C19.4313 0.000952408 21.0133 0.656862 22.1795 1.82383C23.3457 2.9908 24.0006 4.57324 24 6.22303C23.9994 7.87282 23.3435 9.45482 22.1766 10.621L10.5674 22.2242L10.5584 22.2331C9.38722 23.3744 7.81358 24.0084 6.17829 23.9978C4.54301 23.9872 2.97771 23.3329 1.82136 22.1766C0.665015 21.0202 0.0107074 19.4549 0.000130249 17.8196C-0.0104469 16.1843 0.623559 14.6107 1.76485 13.4395L1.77386 13.4304L13.3824 1.82087ZM14.789 3.22843L3.1858 14.8326C2.41238 15.6286 1.98283 16.6968 1.99001 17.8067C1.99721 18.9187 2.44214 19.9831 3.22845 20.7695C4.01477 21.5558 5.07917 22.0007 6.19116 22.0079C7.30115 22.0151 8.36937 21.5855 9.16534 20.8121L20.7699 9.2135C21.5636 8.42037 22.0097 7.34439 22.0101 6.22236C22.0105 5.10033 21.5651 4.02411 20.772 3.23045C19.9788 2.43679 18.9029 1.9907 17.7809 1.99032C16.6589 1.98994 15.5826 2.43531 14.789 3.22843Z"/>
    <path fill-rule="evenodd" clip-rule="evenodd" d="M7.05017 8.15302C7.43872 7.76446 8.0687 7.76446 8.45726 8.15302L15.8449 15.5406C16.2334 15.9292 16.2334 16.5591 15.8449 16.9477C15.4563 17.3363 14.8263 17.3363 14.4378 16.9477L7.05017 9.5601C6.66161 9.17155 6.66161 8.54157 7.05017 8.15302Z"/>
    <path fill-rule="evenodd" clip-rule="evenodd" d="M17.2556 5.50214C17.0923 5.50214 16.9306 5.53432 16.7798 5.59685C16.6289 5.65937 16.4919 5.75101 16.3765 5.86652C15.9881 6.25525 15.3581 6.25554 14.9694 5.86716C14.5806 5.47877 14.5804 4.8488 14.9687 4.46007C15.269 4.15958 15.6254 3.9212 16.0178 3.75857C16.4102 3.59593 16.8308 3.51222 17.2556 3.51222C17.6803 3.51222 18.1009 3.59593 18.4933 3.75857C18.8857 3.9212 19.2422 4.15958 19.5424 4.46007C19.9308 4.8488 19.9305 5.47877 19.5418 5.86716C19.1531 6.25554 18.5231 6.25525 18.1347 5.86652C18.0193 5.75101 17.8823 5.65937 17.7314 5.59685C17.5806 5.53432 17.4189 5.50214 17.2556 5.50214Z"/>
</svg>
