<svg width="24" height="24" viewBox="0 0 24 24" fill="currentColor" xmlns="http://www.w3.org/2000/svg">
    <path d="M12 15.1837C11.4612 15.1837 11.0204 14.7429 11.0204 14.2041V13.2196C11.0204 12.7102 11.1771 12.2204 11.471 11.8041C11.7649 11.3878 12.1714 11.0792 12.6563 10.9078C12.9943 10.7902 13.2931 10.5796 13.5233 10.3004C13.7486 10.0212 13.8955 9.68816 13.9445 9.33061C13.9935 8.97306 13.9445 8.61061 13.8024 8.28245C13.6604 7.95429 13.4302 7.6702 13.1363 7.45959C12.8424 7.25388 12.4996 7.13143 12.142 7.10694C11.7845 7.08245 11.4269 7.15592 11.1086 7.32245C10.7902 7.48898 10.5208 7.73878 10.3347 8.04245C10.1486 8.34612 10.0506 8.70367 10.0506 9.06122C10.0506 9.6 9.6098 10.0408 9.07102 10.0408C8.53224 10.0408 8.09143 9.6 8.09143 9.06122C8.09143 8.34122 8.28735 7.63592 8.66449 7.02367C9.03673 6.41143 9.57061 5.91184 10.2122 5.57878C10.849 5.25061 11.5641 5.09878 12.2841 5.14776C12.9992 5.19674 13.6898 5.44163 14.2776 5.85796C14.8653 6.27429 15.3257 6.84245 15.6098 7.49878C15.8939 8.1551 15.9918 8.88 15.8939 9.5951C15.7959 10.3053 15.502 10.9763 15.0465 11.5347C14.591 12.0931 13.9935 12.5143 13.3176 12.7494C13.2196 12.7837 13.1412 12.8473 13.0824 12.9257C13.0237 13.009 12.9943 13.1069 12.9943 13.2098V14.1943C12.9943 14.7331 12.5535 15.1739 12.0147 15.1739L12 15.1837Z"/>
    <path d="M12 18.8571C11.2555 18.8571 10.6531 18.2547 10.6531 17.5102C10.6531 16.7657 11.2555 16.1633 12 16.1633V18.8571Z"/>
    <path d="M12 18.8571V16.1633C12.7445 16.1633 13.3469 16.7657 13.3469 17.5102C13.3469 18.2547 12.7445 18.8571 12 18.8571Z"/>
    <path d="M12 24C5.38286 24 0 18.6171 0 12C0 5.38286 5.38286 0 12 0C18.6171 0 24 5.38286 24 12C24 18.6171 18.6171 24 12 24ZM12 1.95918C6.46531 1.95918 1.95918 6.46531 1.95918 12C1.95918 17.5347 6.46531 22.0408 12 22.0408C17.5347 22.0408 22.0408 17.5347 22.0408 12C22.0408 6.46531 17.5347 1.95918 12 1.95918Z"/>
</svg>
