<svg width="24" height="24" viewBox="0 0 24 24" fill="currentColor" xmlns="http://www.w3.org/2000/svg">
    <path d="M8.86874 17.1625C6.55074 17.1625 4.58895 16.3597 2.98337 14.7541C1.37779 13.1486 0.574997 11.1868 0.574997 8.86874C0.574997 6.55074 1.37779 4.58895 2.98337 2.98337C4.58895 1.37779 6.55074 0.574997 8.86874 0.574997C11.1868 0.574997 13.1486 1.37779 14.7541 2.98337C16.3597 4.58895 17.1625 6.55074 17.1625 8.86874C17.1625 9.8044 17.0136 10.687 16.7159 11.5164C16.4182 12.3457 16.0141 13.0794 15.5037 13.7174L22.6491 20.8628C22.883 21.0967 23 21.3945 23 21.7559C23 22.1174 22.883 22.4152 22.6491 22.6491C22.4152 22.883 22.1174 23 21.7559 23C21.3945 23 21.0967 22.883 20.8628 22.6491L13.7174 15.5037C13.0794 16.0141 12.3457 16.4182 11.5164 16.7159C10.687 17.0136 9.8044 17.1625 8.86874 17.1625ZM8.86874 14.6106C10.4637 14.6106 11.8194 14.0523 12.9359 12.9359C14.0523 11.8194 14.6106 10.4637 14.6106 8.86874C14.6106 7.27379 14.0523 5.91808 12.9359 4.80162C11.8194 3.68515 10.4637 3.12692 8.86874 3.12692C7.27379 3.12692 5.91808 3.68515 4.80162 4.80162C3.68515 5.91808 3.12692 7.27379 3.12692 8.86874C3.12692 10.4637 3.68515 11.8194 4.80162 12.9359C5.91808 14.0523 7.27379 14.6106 8.86874 14.6106Z"/>
</svg>
