<svg width="24" height="24" viewBox="0 0 24 24" fill="currentColor" xmlns="http://www.w3.org/2000/svg">
    <path fill-rule="evenodd" clip-rule="evenodd" d="M19.3548 14.2882C19.8653 13.7833 20.5576 13.4998 21.2794 13.5C22.0012 13.5002 22.6933 13.7842 23.2035 14.2895C23.7137 14.7948 24.0002 15.48 24 16.1943C23.9998 16.9087 23.7128 17.5937 23.2022 18.0986L18.1232 23.1227L18.1193 23.1265C17.6069 23.6207 16.9184 23.8952 16.203 23.8906C15.4876 23.886 14.8027 23.6027 14.2968 23.102C13.7909 22.6014 13.5047 21.9236 13.5001 21.2155C13.4954 20.5075 13.7728 19.8261 14.2721 19.319L14.2761 19.315L19.3548 14.2882ZM19.9702 14.8977L14.8938 19.9222C14.5554 20.2668 14.3675 20.7294 14.3706 21.21C14.3738 21.6914 14.5684 22.1523 14.9124 22.4928C15.2565 22.8333 15.7221 23.0259 16.2086 23.029C16.6943 23.0321 17.1616 22.8461 17.5098 22.5112L22.5868 17.4892C22.9341 17.1458 23.1292 16.6799 23.1294 16.194C23.1296 15.7082 22.9347 15.2422 22.5877 14.8986C22.2407 14.5549 21.77 14.3618 21.2791 14.3616C20.7882 14.3615 20.3174 14.5543 19.9702 14.8977Z"/>
    <path fill-rule="evenodd" clip-rule="evenodd" d="M16.5844 17.03C16.7544 16.8618 17.0301 16.8618 17.2 17.03L20.4321 20.2288C20.6021 20.397 20.6021 20.6698 20.4321 20.838C20.2621 21.0062 19.9865 21.0062 19.8165 20.838L16.5844 17.6393C16.4145 17.471 16.4145 17.1982 16.5844 17.03Z"/>
    <path fill-rule="evenodd" clip-rule="evenodd" d="M21.0493 15.8822C20.9779 15.8822 20.9071 15.8961 20.8411 15.9232C20.7752 15.9503 20.7152 15.99 20.6647 16.04C20.4948 16.2083 20.2192 16.2084 20.0491 16.0402C19.879 15.8721 19.8789 15.5993 20.0488 15.431C20.1802 15.3009 20.3361 15.1977 20.5078 15.1272C20.6795 15.0568 20.8635 15.0206 21.0493 15.0206C21.2352 15.0206 21.4192 15.0568 21.5908 15.1272C21.7625 15.1977 21.9185 15.3009 22.0498 15.431C22.2197 15.5993 22.2196 15.8721 22.0495 16.0402C21.8795 16.2084 21.6039 16.2083 21.4339 16.04C21.3834 15.99 21.3235 15.9503 21.2575 15.9232C21.1915 15.8961 21.1208 15.8822 21.0493 15.8822Z"/>
    <path fill-rule="evenodd" clip-rule="evenodd" d="M9.75 3.75V8.625C9.75 9.24632 9.24632 9.75 8.625 9.75H3.75V14.25H8.625C9.24632 14.25 9.75 14.7537 9.75 15.375V20.25H11.5714C11.9856 20.25 12.3214 20.5858 12.3214 21C12.3214 21.4142 11.9856 21.75 11.5714 21.75H9.375C8.75368 21.75 8.25 21.2463 8.25 20.625V15.75H3.375C2.75368 15.75 2.25 15.2463 2.25 14.625V9.375C2.25 8.75368 2.75368 8.25 3.375 8.25H8.25V3.375C8.25 2.75368 8.75368 2.25 9.375 2.25H14.625C15.2463 2.25 15.75 2.75368 15.75 3.375V8.25H20.625C21.2463 8.25 21.75 8.75368 21.75 9.375V11.5714C21.75 11.9856 21.4142 12.3214 21 12.3214C20.5858 12.3214 20.25 11.9856 20.25 11.5714V9.75H15.375C14.7537 9.75 14.25 9.24632 14.25 8.625V3.75H9.75Z"/>
</svg>
