<svg width="24" height="24" viewBox="0 0 24 24" fill="currentColor" xmlns="http://www.w3.org/2000/svg">
    <path fill-rule="evenodd" clip-rule="evenodd" d="M12.0306 1.95918C9.7313 1.95918 7.86735 3.82314 7.86735 6.12245C7.86735 8.42176 9.7313 10.2857 12.0306 10.2857C14.3299 10.2857 16.1939 8.42176 16.1939 6.12245C16.1939 3.82314 14.3299 1.95918 12.0306 1.95918ZM5.90816 6.12245C5.90816 2.74111 8.64928 0 12.0306 0C15.4119 0 18.1531 2.74111 18.1531 6.12245C18.1531 9.50378 15.4119 12.2449 12.0306 12.2449C8.64928 12.2449 5.90816 9.50378 5.90816 6.12245Z"/>
    <path fill-rule="evenodd" clip-rule="evenodd" d="M12.0306 14.449C9.75733 14.449 7.57715 15.352 5.9697 16.9595C4.36224 18.5669 3.45918 20.7471 3.45918 23.0204C3.45918 23.5614 3.02061 24 2.47959 24C1.93858 24 1.5 23.5614 1.5 23.0204C1.5 20.2275 2.60947 17.549 4.58434 15.5741C6.55922 13.5993 9.23772 12.4898 12.0306 12.4898C14.8235 12.4898 17.502 13.5993 19.4769 15.5741C21.4518 17.549 22.5612 20.2275 22.5612 23.0204C22.5612 23.5614 22.1226 24 21.5816 24C21.0406 24 20.602 23.5614 20.602 23.0204C20.602 20.7471 19.699 18.5669 18.0915 16.9595C16.4841 15.352 14.3039 14.449 12.0306 14.449Z"/>
</svg>
